<?xml version="1.0" encoding="iso-8859-1"?>
<!-- Uploaded to: SVG Repo, www.svgrepo.com, Generator: SVG Repo Mixer Tools -->
<svg version="1.1" id="Layer_1" xmlns="http://www.w3.org/2000/svg" xmlns:xlink="http://www.w3.org/1999/xlink" 
	 viewBox="0 0 512 512" xml:space="preserve">
<path style="fill:#FF1D25;" d="M470.73,400.084H41.27c-18.455,0-33.414-14.96-33.414-33.414V145.33
	c0-18.454,14.96-33.414,33.414-33.414h429.46c18.455,0,33.414,14.96,33.414,33.414V366.67
	C504.145,385.124,489.185,400.084,470.73,400.084z"/>
<rect x="0.423" y="150.212" style="fill:#BF161C;" width="71.225" height="194.299"/>
<rect x="433.009" y="150.212" style="fill:#FF4A51;" width="71.225" height="194.299"/>
<path style="fill:#740C10;" d="M384.749,344.051H127.252c-17.311,0-31.344-14.034-31.344-31.344V287.04
	c0-21.564,17.481-39.044,39.044-39.044H377.05c21.564,0,39.044,17.481,39.044,39.044v25.667
	C416.094,330.018,402.06,344.051,384.749,344.051z"/>
<path style="fill:#FFFFFF;" d="M241.125,231.987h-90.321c-8.215,0-14.875-6.66-14.875-14.875v-90.321
	c0-8.215,6.66-14.875,14.875-14.875h90.321c8.215,0,14.875,6.66,14.875,14.875v90.321C256,225.327,249.34,231.987,241.125,231.987z"
	/>
<g>
	<path style="fill:#F2F2F2;" d="M504.145,175.954h-48.028v-64.037h15.962c17.71,0,32.066,14.356,32.066,32.066L504.145,175.954
		L504.145,175.954z"/>
	<path style="fill:#F2F2F2;" d="M7.856,175.954h48.028v-64.037H39.922c-17.71,0-32.066,14.356-32.066,32.066
		C7.856,143.983,7.856,175.954,7.856,175.954z"/>
	<path style="fill:#F2F2F2;" d="M504.145,336.047h-48.028v64.037h15.962c17.71,0,32.066-14.356,32.066-32.066L504.145,336.047
		L504.145,336.047z"/>
	<path style="fill:#F2F2F2;" d="M7.856,336.047h48.028v64.037H39.922c-17.71,0-32.066-14.356-32.066-32.066
		C7.856,368.018,7.856,336.047,7.856,336.047z"/>
	<path style="fill:#F2F2F2;" d="M256,123.5c0-6.652-5.393-12.045-12.045-12.045l0,0c-6.652,0-12.045,5.393-12.045,12.045v96.364
		c0,6.652,5.393,12.045,12.045,12.045l0,0c6.652,0,12.045-5.393,12.045-12.045V123.5z"/>
	<path style="fill:#F2F2F2;" d="M159.636,123.5c0-6.652-5.393-12.045-12.045-12.045l0,0c-6.652,0-12.045,5.393-12.045,12.045v96.364
		c0,6.652,5.393,12.045,12.045,12.045l0,0c6.652,0,12.045-5.393,12.045-12.045V123.5z"/>
</g>
<path style="fill:#FFFFFF;" d="M358.346,231.987h-84.622c-9.788,0-17.724-7.935-17.724-17.725V129.64
	c0-9.789,7.935-17.725,17.724-17.725h84.622c9.788,0,17.725,7.935,17.725,17.725v84.622
	C376.07,224.051,368.135,231.987,358.346,231.987z"/>
<g>
	<path style="fill:#F2F2F2;" d="M376.455,123.5c0-6.652-5.393-12.045-12.045-12.045l0,0c-6.652,0-12.045,5.393-12.045,12.045v96.364
		c0,6.652,5.393,12.045,12.045,12.045l0,0c6.652,0,12.045-5.393,12.045-12.045V123.5z"/>
	<path style="fill:#F2F2F2;" d="M280.091,123.5c0-6.652-5.393-12.045-12.046-12.045l0,0c-6.652,0-12.045,5.393-12.045,12.045v96.364
		c0,6.652,5.393,12.045,12.045,12.045l0,0c6.652,0,12.046-5.393,12.046-12.045V123.5z"/>
</g>
<path style="fill:#FFFFFF;" d="M241.805,400.084h-91.681c-7.839,0-14.195-6.355-14.195-14.195v-91.681
	c0-7.84,6.356-14.195,14.195-14.195h91.681c7.84,0,14.195,6.355,14.195,14.195v91.681C256,393.729,249.645,400.084,241.805,400.084z
	"/>
<g>
	<path style="fill:#F2F2F2;" d="M256,292.136c0-6.652-5.393-12.045-12.045-12.045l0,0c-6.652,0-12.045,5.393-12.045,12.045V388.5
		c0,6.652,5.393,12.045,12.045,12.045l0,0c6.652,0,12.045-5.393,12.045-12.045V292.136z"/>
	<path style="fill:#F2F2F2;" d="M159.636,292.136c0-6.652-5.393-12.045-12.045-12.045l0,0c-6.652,0-12.045,5.393-12.045,12.045
		V388.5c0,6.652,5.393,12.045,12.045,12.045l0,0c6.652,0,12.045-5.393,12.045-12.045V292.136z"/>
</g>
<path style="fill:#FFFFFF;" d="M363.976,400.084h-95.882c-6.679,0-12.094-5.414-12.094-12.094v-95.882
	c0-6.679,5.414-12.094,12.094-12.094h95.882c6.679,0,12.094,5.414,12.094,12.094v95.882
	C376.07,394.67,370.655,400.084,363.976,400.084z"/>
<g>
	<path style="fill:#F2F2F2;" d="M376.455,292.136c0-6.652-5.393-12.045-12.045-12.045l0,0c-6.652,0-12.045,5.393-12.045,12.045
		V388.5c0,6.652,5.393,12.045,12.045,12.045l0,0c6.652,0,12.045-5.393,12.045-12.045V292.136z"/>
	<path style="fill:#F2F2F2;" d="M280.091,292.136c0-6.652-5.393-12.045-12.046-12.045l0,0c-6.652,0-12.045,5.393-12.045,12.045
		V388.5c0,6.652,5.393,12.045,12.045,12.045l0,0c6.652,0,12.046-5.393,12.046-12.045V292.136z"/>
</g>
<path style="fill:#FFFFFF;" d="M441.748,304.028h-51.309c-7.935,0-14.369,6.433-14.369,14.369v67.319
	c0,7.935,6.433,14.369,14.369,14.369h51.309c7.935,0,14.369-6.433,14.369-14.369v-67.319
	C456.117,310.461,449.684,304.028,441.748,304.028z"/>
<g>
	<path style="fill:#F2F2F2;" d="M456.06,312.038c0-4.338-3.517-7.856-7.856-7.856l0,0c-4.338,0-7.856,3.517-7.856,7.856v80.652
		c0,4.338,3.517,7.856,7.856,7.856l0,0c4.338,0,7.856-3.517,7.856-7.856V312.038z"/>
	<path style="fill:#F2F2F2;" d="M392.166,312.038c0-4.338-3.517-7.856-7.856-7.856l0,0c-4.338,0-7.856,3.517-7.856,7.856v80.652
		c0,4.338,3.517,7.856,7.856,7.856l0,0c4.338,0,7.856-3.517,7.856-7.856V312.038z"/>
</g>
<path style="fill:#FFFFFF;" d="M441.505,111.916h-50.821c-8.07,0-14.613,6.542-14.613,14.613v66.831
	c0,8.07,6.542,14.613,14.613,14.613h50.821c8.07,0,14.613-6.542,14.613-14.613v-66.831
	C456.117,118.458,449.575,111.916,441.505,111.916z"/>
<g>
	<path style="fill:#F2F2F2;" d="M456.06,119.31c0-4.338-3.517-7.856-7.856-7.856l0,0c-4.338,0-7.856,3.517-7.856,7.856v80.652
		c0,4.338,3.517,7.856,7.856,7.856l0,0c4.338,0,7.856-3.517,7.856-7.856V119.31z"/>
	<path style="fill:#F2F2F2;" d="M392.166,119.31c0-4.338-3.517-7.856-7.856-7.856l0,0c-4.338,0-7.856,3.517-7.856,7.856v80.652
		c0,4.338,3.517,7.856,7.856,7.856l0,0c4.338,0,7.856-3.517,7.856-7.856V119.31z"/>
</g>
<path style="fill:#FFFFFF;" d="M119.481,304.028H72.333c-9.084,0-16.449,7.365-16.449,16.449v63.158
	c0,9.084,7.364,16.449,16.449,16.449h47.148c9.084,0,16.449-7.365,16.449-16.449v-63.158
	C135.931,311.392,128.566,304.028,119.481,304.028z"/>
<g>
	<path style="fill:#F2F2F2;" d="M135.545,312.038c0-4.338-3.517-7.856-7.856-7.856l0,0c-4.338,0-7.856,3.517-7.856,7.856v80.652
		c0,4.338,3.517,7.856,7.856,7.856l0,0c4.338,0,7.856-3.517,7.856-7.856V312.038z"/>
	<path style="fill:#F2F2F2;" d="M71.652,312.038c0-4.338-3.517-7.856-7.856-7.856l0,0c-4.338,0-7.856,3.517-7.856,7.856v80.652
		c0,4.338,3.517,7.856,7.856,7.856l0,0c4.338,0,7.856-3.517,7.856-7.856V312.038z"/>
</g>
<path style="fill:#FFFFFF;" d="M119.104,111.916H72.71c-9.293,0-16.826,7.533-16.826,16.826v62.403
	c0,9.293,7.533,16.826,16.826,16.826h46.394c9.293,0,16.826-7.533,16.826-16.826v-62.403
	C135.931,119.449,128.396,111.916,119.104,111.916z"/>
<g>
	<path style="fill:#F2F2F2;" d="M135.545,119.31c0-4.338-3.517-7.856-7.856-7.856l0,0c-4.338,0-7.856,3.517-7.856,7.856v80.652
		c0,4.338,3.517,7.856,7.856,7.856l0,0c4.338,0,7.856-3.517,7.856-7.856V119.31z"/>
	<path style="fill:#F2F2F2;" d="M71.652,119.31c0-4.338-3.517-7.856-7.856-7.856l0,0c-4.338,0-7.856,3.517-7.856,7.856v80.652
		c0,4.338,3.517,7.856,7.856,7.856l0,0c4.338,0,7.856-3.517,7.856-7.856V119.31z"/>
</g>
<path d="M472.254,104.06H39.746C17.829,104.06,0,121.891,0,143.806v224.387c0,21.917,17.829,39.746,39.746,39.746h432.508
	c21.917,0,39.746-17.829,39.746-39.746V143.806C512,121.891,494.171,104.06,472.254,104.06z M443.996,296.172h-55.804
	c-1.465,0-2.89,0.169-4.265,0.469v-3.028c0-11.831-9.625-21.456-21.456-21.456h-92.87c-5.303,0-10.155,1.945-13.903,5.145
	c-3.883-3.211-8.86-5.145-14.281-5.145h-90.903c-12.373,0-22.439,10.066-22.439,22.439v2.659c-2.177-0.699-4.491-1.085-6.896-1.085
	H70.637c-12.467,0-22.608,10.142-22.608,22.609v9.424l-32.318,0.056V183.741l32.316,0.056v11.306
	c0,11.429,9.298,20.727,20.727,20.727h54.304c1.732,0,3.406-0.237,5.016-0.639v4.415c0,11.159,9.079,20.239,20.238,20.239h95.305
	c4.666,0,8.956-1.603,12.383-4.265c3.427,2.663,7.716,4.265,12.383,4.265h95.304c11.159,0,20.238-9.079,20.238-20.239v-4.93
	c2.255,0.746,4.662,1.155,7.163,1.155h50.008c12.614,0,22.876-10.262,22.876-22.875v-9.157l32.316-0.055v144.519l-32.316-0.056
	v-12.055C463.973,305.134,455.011,296.172,443.996,296.172z M496.288,143.806v24.223l-32.316,0.056v-41.148
	c0-2.502-0.41-4.908-1.155-7.163h9.436C485.507,119.772,496.288,130.554,496.288,143.806z M441.097,119.772
	c3.951,0,7.164,3.214,7.164,7.163v66.017c0,3.95-3.214,7.163-7.164,7.163H391.09c-3.949,0-7.163-3.214-7.163-7.163v-66.017
	c0-3.95,3.214-7.163,7.163-7.163C391.09,119.772,441.097,119.772,441.097,119.772z M363.688,119.772
	c2.496,0,4.527,2.031,4.527,4.527v2.637v66.017v26.651c0,2.496-2.031,4.527-4.527,4.527h-95.304c-2.496,0-4.527-2.031-4.527-4.527
	v-95.305c0-2.496,2.031-4.527,4.527-4.527H363.688z M243.617,119.772c2.496,0,4.527,2.031,4.527,4.527v95.305
	c0,2.496-2.031,4.527-4.527,4.527h-95.305c-2.496,0-4.527-2.031-4.527-4.527v-24.503v-70.314v-0.488
	c0-2.496,2.031-4.527,4.527-4.527C148.312,119.772,243.617,119.772,243.617,119.772z M123.059,119.772
	c2.766,0,5.016,2.25,5.016,5.015v70.314c0,2.765-2.25,5.015-5.016,5.015H68.755c-2.765,0-5.015-2.25-5.015-5.015v-70.314
	c0-2.765,2.25-5.015,5.015-5.015C68.755,119.772,123.059,119.772,123.059,119.772z M39.746,119.772h8.921
	c-0.402,1.609-0.639,3.283-0.639,5.015v43.297l-32.316-0.054v-24.223C15.711,130.554,26.493,119.772,39.746,119.772z
	 M15.711,368.194v-24.223l32.316-0.056v41.416c0,2.406,0.385,4.721,1.084,6.897h-9.367
	C26.493,392.228,15.711,381.447,15.711,368.194z M70.637,392.228c-3.803,0-6.897-3.094-6.897-6.897V318.78
	c0-3.803,3.094-6.897,6.897-6.897h50.542c3.803,0,6.896,3.094,6.896,6.897v66.551c0,3.803-3.094,6.897-6.896,6.897H70.637z
	 M150.514,392.228c-3.71,0-6.728-3.018-6.728-6.728v-0.169v-66.551v-24.183c0-3.71,3.018-6.728,6.728-6.728h90.903
	c3.71,0,6.728,3.018,6.728,6.728V385.5c0,3.71-3.018,6.728-6.728,6.728H150.514z M269.601,392.228c-3.167,0-5.744-2.577-5.744-5.744
	V385.5v-90.903v-0.984c0-3.167,2.577-5.744,5.744-5.744h92.87c3.168,0,5.744,2.577,5.744,5.744v22.536v70.335
	c0,3.167-2.577,5.744-5.744,5.744h-92.87V392.228z M388.191,392.228c-2.351,0-4.265-1.914-4.265-4.265v-1.479v-70.335
	c0-2.353,1.914-4.265,4.265-4.265h55.804c2.351,0,4.265,1.914,4.265,4.265v71.813c0,2.353-1.914,4.265-4.265,4.265h-55.804V392.228z
	 M472.254,392.228h-8.75c0.301-1.376,0.469-2.801,0.469-4.265v-44.047l32.316,0.056v24.223
	C496.288,381.447,485.507,392.228,472.254,392.228z"/>
<g>
	<rect x="71.655" y="159.639" style="fill:#4D4D4D;" width="368.696" height="15.711"/>
	<rect x="71.655" y="336.655" style="fill:#4D4D4D;" width="368.696" height="15.711"/>
</g>
<g>
	<rect x="88.414" y="319.897" style="fill:#333333;" width="15.711" height="48.182"/>
	<rect x="407.881" y="319.897" style="fill:#333333;" width="15.711" height="48.182"/>
	<rect x="168.019" y="319.897" style="fill:#333333;" width="15.711" height="48.182"/>
	<rect x="207.821" y="319.897" style="fill:#333333;" width="15.711" height="48.182"/>
	<rect x="288.474" y="319.897" style="fill:#333333;" width="15.711" height="48.182"/>
	<rect x="328.276" y="319.897" style="fill:#333333;" width="15.711" height="48.182"/>
	<rect x="88.414" y="143.928" style="fill:#333333;" width="15.711" height="48.182"/>
	<rect x="407.881" y="143.928" style="fill:#333333;" width="15.711" height="48.182"/>
	<rect x="168.019" y="143.928" style="fill:#333333;" width="15.711" height="48.182"/>
	<rect x="207.821" y="143.928" style="fill:#333333;" width="15.711" height="48.182"/>
	<rect x="288.474" y="143.928" style="fill:#333333;" width="15.711" height="48.182"/>
	<rect x="328.276" y="143.928" style="fill:#333333;" width="15.711" height="48.182"/>
</g>
</svg>