<?xml version="1.0" encoding="iso-8859-1"?>
<!-- Uploaded to: SVG Repo, www.svgrepo.com, Generator: SVG Repo Mixer Tools -->
<!DOCTYPE svg PUBLIC "-//W3C//DTD SVG 1.1//EN" "http://www.w3.org/Graphics/SVG/1.1/DTD/svg11.dtd">
<svg fill="#000000" height="800px" width="800px" version="1.1" id="Capa_1" xmlns="http://www.w3.org/2000/svg" xmlns:xlink="http://www.w3.org/1999/xlink" 
	 viewBox="0 0 60.001 60.001" xml:space="preserve">
<path d="M59.326,30.756c0.005-0.025,0.012-0.054,0.017-0.079l0.022-0.104c0.969-4.579,1.078-10.848-1.523-14.706
	c-2.577-3.823-8.438-5.627-13.071-4.026c-0.333,0.115-0.614,0.251-0.878,0.379c-0.479,0.234-0.689,0.327-1.083,0.28
	c-0.414-0.049-0.959-0.19-1.486-0.327c-0.531-0.138-1.081-0.28-1.573-0.352c-1.932-0.274-3.748-0.242-5.711,0.107
	c-2.995,0.533-5.237,2.002-6.665,4.364c-0.009,0.015-0.015,0.031-0.024,0.046c-0.861-2.533-2.492-5.284-4.388-6.642
	C19.035,6.881,13.53,6.769,6.597,9.362c-3.494,1.308-6.883,5.026-6.578,10.385c0.175,3.081,0.655,6.726,1.335,10.357
	c-0.831,0.588-1.354,1.546-1.354,2.594v9.744c0,5.548,4.514,10.062,10.062,10.062H49.94c5.548,0,10.061-4.514,10.061-10.062v-9.744
	C60.001,31.99,59.757,31.311,59.326,30.756z M29.086,17.326c1.132-1.874,2.867-2.995,5.303-3.43c0.974-0.173,1.905-0.26,2.836-0.26
	c0.741,0,1.48,0.055,2.241,0.164c0.382,0.055,0.876,0.183,1.355,0.307c0.524,0.136,1.057,0.266,1.553,0.342
	c0.82,0.402,6.586,3.399,6.586,8.043c0,0.553,0.448,1,1,1s1-0.447,1-1c0-4.192-3.39-7.149-5.719-8.688
	c0.061-0.025,0.118-0.051,0.184-0.074c3.764-1.308,8.69,0.185,10.758,3.253c2.252,3.341,2.109,8.996,1.225,13.175l-0.022,0.105
	c-0.018,0.083-0.038,0.18-0.058,0.274l-0.065,0.301c-0.5,2.319-1.066,4.126-1.693,5.412c-0.001,0.002-0.002,0.003-0.003,0.005
	c-0.146,0.299-0.296,0.565-0.449,0.808c-0.016,0.026-0.031,0.053-0.048,0.078c-0.149,0.23-0.302,0.432-0.458,0.608
	c-0.032,0.036-0.065,0.066-0.097,0.1c-0.125,0.132-0.252,0.245-0.381,0.343c-0.044,0.033-0.086,0.068-0.131,0.097
	c-0.163,0.107-0.328,0.196-0.497,0.249c-1.466,0.462-3.444,0.288-5.357,0.121c-1.022-0.089-1.987-0.164-2.893-0.167
	c-1.616,0.013-3.173,0.545-4.678,1.06c-1.541,0.527-2.998,1.021-4.388,0.942c-1.636-0.097-3.739-1.688-4.887-3.138
	c-0.256-0.324-0.488-0.674-0.7-1.044c-0.635-1.109-1.091-2.394-1.489-3.648c-0.11-0.348-0.215-0.705-0.317-1.067
	c-0.032-0.114-0.065-0.238-0.098-0.361c-0.057-0.212-0.112-0.427-0.166-0.642c-0.309-1.241-0.626-2.802-0.798-4.479
	c-0.053-0.533-0.091-1.054-0.11-1.559c0-0.008,0-0.017-0.001-0.025c-0.056-1.588,0.06-3.033,0.348-4.313l0.002-0.03
	C28.207,19.166,28.561,18.194,29.086,17.326z M7.298,11.235c3.097-1.157,5.854-1.736,8.255-1.736c2.46,0,4.548,0.607,6.244,1.822
	c2.423,1.736,4.22,6.27,4.204,8.359l-0.003,0.2c-0.024,0.108-0.035,0.227-0.057,0.337c-0.058,0.303-0.113,0.607-0.154,0.914
	c-0.03,0.22-0.05,0.448-0.072,0.675c-0.021,0.22-0.04,0.44-0.053,0.661c-0.017,0.28-0.03,0.564-0.036,0.853
	c-0.003,0.14-0.001,0.28-0.001,0.42c-0.001,0.825,0.027,1.672,0.116,2.563c-0.093,1.23-0.212,2.376-0.355,3.457l-0.087,0.601
	c-0.202,1.394-0.438,2.63-0.713,3.749c-0.011,0.043-0.021,0.088-0.031,0.131c-0.092,0.368-0.188,0.725-0.29,1.069
	c-1.774,6.023-3.024,6.194-10.255,6.194c-3.869,0-7.983-0.595-9.168-5.009c-0.157-0.587-0.309-1.194-0.458-1.807
	c-0.048-0.198-0.095-0.398-0.143-0.6c-0.112-0.474-0.22-0.954-0.326-1.438c-0.036-0.165-0.073-0.327-0.109-0.493
	c-0.918-4.315-1.584-8.898-1.79-12.524C1.769,15.29,4.491,12.285,7.298,11.235z M58.001,42.442c0,4.445-3.616,8.062-8.061,8.062
	H10.062c-4.445,0-8.062-3.616-8.062-8.062v-9.168c0.049,0.223,0.101,0.434,0.151,0.654c0.087,0.379,0.171,0.758,0.262,1.131
	c0.161,0.668,0.326,1.322,0.496,1.953c1.544,5.754,6.743,6.491,11.1,6.491c7.541,0,10.029-0.348,12.174-7.63
	c0.143-0.484,0.273-0.992,0.398-1.513c0.013-0.054,0.026-0.107,0.039-0.162c0.127-0.542,0.246-1.103,0.355-1.686
	c0.014,0.048,0.029,0.094,0.043,0.142c0.068,0.231,0.132,0.441,0.188,0.616c0.589,1.854,1.303,3.783,2.528,5.329
	c1.408,1.777,3.992,3.754,6.336,3.892c0.142,0.009,0.284,0.013,0.425,0.013c0.019,0,0.038-0.004,0.057-0.004
	c0.383-0.001,0.763-0.032,1.14-0.087c0.012-0.002,0.025-0.004,0.037-0.005c1.195-0.177,2.358-0.574,3.494-0.962
	c1.417-0.484,2.754-0.942,4.046-0.952c0.813-0.001,1.729,0.074,2.704,0.159c1.032,0.091,2.081,0.181,3.099,0.183
	c0.022,0,0.044,0.001,0.066,0.001c0.03,0,0.06-0.002,0.09-0.002c0.873-0.006,1.718-0.089,2.512-0.292
	c0.122-0.031,0.247-0.057,0.366-0.095c0.014-0.004,0.026-0.012,0.04-0.017c0.202-0.067,0.398-0.148,0.585-0.247
	c0.151-0.079,0.292-0.176,0.433-0.274c0.042-0.029,0.087-0.052,0.128-0.083c1.064-0.788,1.862-2.094,2.481-3.606
	c0-0.001,0.001-0.002,0.001-0.003c0.076-0.187,0.154-0.372,0.225-0.564V42.442z"/>
</svg>