<?xml version="1.0" encoding="iso-8859-1"?>
<!-- Uploaded to: SVG Repo, www.svgrepo.com, Generator: SVG Repo Mixer Tools -->
<svg height="800px" width="800px" version="1.1" id="Capa_1" xmlns="http://www.w3.org/2000/svg" xmlns:xlink="http://www.w3.org/1999/xlink" 
	 viewBox="0 0 460 460" xml:space="preserve">
<g>
	<path style="fill:#FFF6D6;" d="M95,222.5c-24.853,0-45,20.147-45,45s0,55,0,55h90c0,0,0-30.147,0-55S119.853,222.5,95,222.5z"/>
	<path style="fill:#FFEDAD;" d="M185,222.5c-24.853,0-45,20.147-45,45s0,55,0,55h90c0,0,0-30.147,0-55S209.853,222.5,185,222.5z"/>
	<path style="fill:#FFF6D6;" d="M275,222.5c-24.853,0-45,20.147-45,45s0,55,0,55h90c0,0,0-30.147,0-55S299.853,222.5,275,222.5z"/>
	<path style="fill:#FFEDAD;" d="M365,222.5c-24.853,0-45,20.147-45,45s0,55,0,55h90c0,0,0-30.147,0-55S389.853,222.5,365,222.5z"/>
	<path style="fill:#F46A1A;" d="M95,192.5c16.869,0,32.457,5.6,45,15.035c12.543-9.436,28.131-15.035,45-15.035
		c16.868,0,32.457,5.6,45,15.035V137.5H50c-27.5,0-50,22.5-50,50v20.035h50.007C62.55,198.101,78.132,192.5,95,192.5z"/>
	<path style="fill:#D5310E;" d="M410,137.5H230v70.035c12.543-9.435,28.132-15.035,45-15.035s32.457,5.6,45,15.035
		c12.543-9.436,28.131-15.035,45-15.035c16.868,0,32.45,5.601,44.993,15.035H460V187.5C460,160,437.5,137.5,410,137.5z"/>
	<path style="fill:#F46A1A;" d="M365,192.5c-16.869,0-32.457,5.6-45,15.035c-12.543-9.436-28.131-15.035-45-15.035
		s-32.457,5.6-45,15.035l0,59.953c0-24.841,20.148-44.988,45-44.988s45,20.147,45,45c0-24.853,20.147-45,45-45s45,20.147,45,45v10
		c27.5,0,49.999-22.5,49.999-50v-19.965h-50.007C397.451,198.101,381.868,192.5,365,192.5z"/>
	<path style="fill:#FF926E;" d="M185,192.5c-16.869,0-32.457,5.6-45,15.035C127.457,198.1,111.869,192.5,95,192.5
		c-16.868,0-32.45,5.601-44.993,15.035H0V227.5c0,27.5,22.5,50,50,50v-10c0-24.853,20.147-45,45-45s45,20.147,45,45
		c0-24.853,20.147-45,45-45c24.849,0,44.993,20.141,45,44.988v-59.953C217.457,198.1,201.868,192.5,185,192.5z"/>
</g>
</svg>