<?xml version="1.0" encoding="iso-8859-1"?>
<!-- Uploaded to: SVG Repo, www.svgrepo.com, Generator: SVG Repo Mixer Tools -->
<svg fill="#000000" height="800px" width="800px" version="1.1" id="Layer_1" xmlns="http://www.w3.org/2000/svg" xmlns:xlink="http://www.w3.org/1999/xlink" 
	 viewBox="0 0 489.922 489.922" xml:space="preserve">
<g>
	<g>
		<path d="M474.061,125.424c-15.6-61.5-49-103.1-95.8-118.7c-41.7-14.6-89.6-5.2-133.3,26c-43.7-30.2-91.7-39.6-133.3-26
			c-46.9,15.5-81.3,58.2-95.8,118.7c-14.6,57.3-9.4,126,12.5,191.6c22.9,70.8,63.5,129.2,112.5,166.6c11.5,8.3,28.1,7.3,38.5-3.1
			c8.8-8.8,8.3-16.6,8.3-29.2c0-66.7,30.2-113.5,57.3-113.5s57.3,46.9,57.3,113.5c0,14.9,1.3,22.1,8.3,29.2
			c14.5,16.1,33.3,7.3,38.5,4.2c49-37.5,88.5-96.9,112.5-166.6C483.461,251.424,488.661,182.624,474.061,125.424z M423.061,304.525
			c-17.7,52.1-45.8,98.9-80.2,131.2c-5.2-79.2-46.9-138.5-97.9-138.5s-92.7,60.4-97.9,138.5c-34.4-32.3-62.5-79.2-80.2-131.2
			c-19.8-59.4-24-118.7-11.5-169.8c11.5-46.9,35.4-78.1,68.7-89.6s71.9,0,108.3,29.2c7.3,6.2,17.7,6.2,25,0
			c37.5-29.2,76-40.6,108.3-29.2c32.3,10.4,57.3,42.7,68.7,89.6C447.061,184.724,442.861,245.124,423.061,304.525z"/>
		<path d="M301.761,176.424h-44.3v-44.3c0-6.6-5.4-12-12-12s-12,5.4-12,12v44.3h-44.3c-6.6,0-12,5.4-12,12s5.4,12,12,12h44.3v44.3
			c0,6.6,5.4,12,12,12s12-5.4,12-12v-44.3h44.3c6.6,0,12-5.4,12-12S308.361,176.424,301.761,176.424z"/>
	</g>
</g>
</svg>