<?xml version="1.0" encoding="iso-8859-1"?>
<!-- Uploaded to: SVG Repo, www.svgrepo.com, Generator: SVG Repo Mixer Tools -->
<svg version="1.1" id="Layer_1" xmlns="http://www.w3.org/2000/svg" xmlns:xlink="http://www.w3.org/1999/xlink" 
	 viewBox="0 0 512 512" xml:space="preserve">
<path style="fill:#63D3B6;" d="M363.962,37.218v313.544H147.304V37.218H363.962z"/>
<polygon style="fill:#AFDDF9;" points="311.903,405.37 294.252,503.418 217.014,503.418 199.363,405.37 "/>
<polygon style="fill:#8FC6E0;" points="240.208,405.37 248.734,503.418 217.014,503.418 199.363,405.37 "/>
<rect x="147.301" y="9.033" style="fill:#B3B3B3;" width="216.659" height="45.8"/>
<rect x="147.301" y="9.033" style="fill:#999999;" width="24.662" height="45.8"/>
<rect x="299.57" y="9.033" style="opacity:0.2;fill:#FFFFFF;enable-background:new    ;" width="24.662" height="45.8"/>
<polygon style="fill:#CCCCCC;" points="363.962,350.762 311.903,405.37 199.363,405.37 147.304,350.762 "/>
<polygon style="fill:#B3B3B3;" points="240.208,405.37 219.526,350.762 147.304,350.762 199.363,405.37 "/>
<polygon style="opacity:0.3;fill:#FFFFFF;enable-background:new    ;" points="278.568,405.37 299.25,350.762 324.235,350.762 
	302.576,405.37 "/>
<path style="fill:#57BC9F;" d="M171.968,54.833v295.928h-24.663V54.833H171.968z"/>
<path style="fill:#E6E6E6;" d="M325.02,185.811c0,8.796-2.067,17.005-5.649,23.969c-8.373,16.312-13.787,33.963-16.723,52.071
	c-0.047,0.294-0.094,0.599-0.141,0.893c-2.114,12.859-19.87,14.327-24.121,2.008c-5.895-17.04-13.681-32.213-22.747-32.213
	s-16.864,15.173-22.747,32.213c-4.263,12.319-22.008,10.851-24.121-2.008c-0.047-0.294-0.106-0.599-0.153-0.892
	c-2.936-18.109-8.338-35.759-16.723-52.071c-3.582-6.964-5.637-15.173-5.637-23.969c0-25.178,16.899-45.577,37.756-45.577
	c3.981,0,7.798,0.74,11.391,2.102c12.965,4.956,27.504,4.956,40.457,0c3.594-1.362,7.422-2.102,11.391-2.102
	C308.11,140.233,325.02,160.632,325.02,185.811z"/>
<path style="opacity:0.2;fill:#FFFFFF;enable-background:new    ;" d="M324.235,54.833v295.928h-24.663V54.833H324.235z"/>
<path d="M184.428,213.581c7.604,14.791,12.94,31.43,15.86,49.437l0.159,0.929c1.611,9.8,9.314,16.95,19.168,17.79
	c0.64,0.054,1.275,0.081,1.906,0.081c9.097,0,17.015-5.608,20.064-14.418c7.771-22.508,13.584-25.871,14.421-26.248
	c0.836,0.377,6.636,3.743,14.421,26.247c3.249,9.416,12.08,15.177,21.958,14.338c9.861-0.837,17.569-7.987,19.187-17.827
	l0.139-0.876c2.917-17.995,8.255-34.636,15.861-49.453c4.333-8.426,6.625-18.108,6.625-27.997c0-29.989-20.894-54.385-46.575-54.385
	c-4.95,0-9.834,0.9-14.539,2.683c-10.849,4.151-23.303,4.151-34.187-0.009c-4.68-1.774-9.564-2.674-14.514-2.674
	c-25.675,0-46.564,24.396-46.564,54.385C177.817,195.49,180.104,205.171,184.428,213.581z M224.381,148.816
	c2.809,0,5.591,0.514,8.246,1.521c15.08,5.765,31.683,5.764,46.724,0.008c2.678-1.015,5.46-1.53,8.27-1.53
	c15.969,0,28.96,16.494,28.96,36.769c0,7.1-1.616,13.995-4.676,19.947c-8.453,16.467-14.368,34.865-17.585,54.701l-0.135,0.857
	c-0.409,2.485-2.236,3.006-3.288,3.096c-1.064,0.09-2.983-0.119-3.818-2.539c-9.001-26.022-18.874-38.141-31.071-38.141
	c-12.213,0-22.087,12.122-31.071,38.141c-0.837,2.423-2.757,2.632-3.824,2.54c-1.051-0.09-2.874-0.612-3.276-3.06l-0.155-0.909
	c-3.219-19.853-9.134-38.251-17.585-54.69c-3.05-5.929-4.661-12.825-4.661-19.941C195.433,165.31,208.419,148.816,224.381,148.816z"
	/>
<path d="M364.33,0H147.671c-4.864,0-8.808,3.944-8.808,8.808v341.729h0.016c0.001,2.22,0.824,4.407,2.417,6.077l50.235,52.694
	l17.182,95.445c0.755,4.195,4.406,7.247,8.668,7.247h77.238c4.262,0,7.913-3.052,8.668-7.247l5.868-32.596
	c0.862-4.788-2.321-9.367-7.108-10.229c-4.79-0.868-9.368,2.321-10.229,7.108l-4.564,25.348h-62.51l-14.48-80.432h91.469
	l-3.163,17.57c-0.862,4.788,2.321,9.367,7.108,10.229c0.527,0.095,1.052,0.141,1.57,0.141c4.181,0,7.892-2.989,8.659-7.249
	l4.56-25.335l50.235-52.694c1.592-1.671,2.416-3.858,2.417-6.077h0.016V8.808C373.138,3.944,369.194,0,364.33,0z M355.522,17.615
	V45.8H210.359c-4.864,0-8.808,3.944-8.808,8.808s3.944,8.808,8.808,8.808h145.163v278.313H156.479V63.416h24.52
	c4.864,0,8.808-3.944,8.808-8.808s-3.944-8.808-8.808-8.808h-24.52V17.615H355.522z M308.498,396.337H203.503l-35.266-36.993
	h175.527L308.498,396.337z"/>
</svg>