<?xml version="1.0" encoding="iso-8859-1"?>
<!-- Uploaded to: SVG Repo, www.svgrepo.com, Generator: SVG Repo Mixer Tools -->
<svg height="800px" width="800px" version="1.1" id="Layer_1" xmlns="http://www.w3.org/2000/svg" xmlns:xlink="http://www.w3.org/1999/xlink" 
	 viewBox="0 0 512 512" xml:space="preserve">
<path style="fill:#C9E3F7;" d="M512,136.533C512,61.128,450.874,0,375.467,0C324.047,0,279.286,28.438,256,70.431
	C232.714,28.438,187.953,0,136.533,0C61.126,0,0,61.128,0,136.533c0,59.96,38.668,110.857,92.414,129.205
	c-4.599,18.543-7.081,38.183-7.081,58.52c0,83.978,42.127,156.138,102.4,187.742V389.111c0-37.702,30.565-68.267,68.267-68.267
	s68.267,30.565,68.267,68.267V512c60.273-31.604,102.4-103.764,102.4-187.742c0-20.337-2.482-39.975-7.081-58.518
	C473.332,247.39,512,196.494,512,136.533z"/>
<path style="fill:#AED5F3;" d="M512,136.533C512,61.128,450.874,0,375.467,0C324.047,0,279.286,28.438,256,70.431
	c0,49.026,0,197.516,0,250.414c37.702,0,68.267,30.565,68.267,68.267V512c60.273-31.604,102.4-103.764,102.4-187.742
	c0-20.337-2.482-39.975-7.081-58.518C473.332,247.39,512,196.494,512,136.533z"/>
<polygon style="fill:#FFFFFF;" points="136.533,59.733 158.503,114.565 213.333,136.533 158.503,158.502 136.533,213.333 
	114.563,158.502 59.733,136.533 114.563,114.565 "/>
</svg>